<?xml version="1.0" encoding="UTF-8"?><svg id="Layer_2" xmlns="http://www.w3.org/2000/svg" viewBox="0 0 1040.16 736.76"><defs><style>.cls-1{fill:#fff;stroke-width:0px;}</style></defs><g id="Layer_1-2"><path class="cls-1" d="M1040.16,429.14c-.99,2.92-1.89,5.87-2.98,8.75-2.88,7.66-8.43,12.78-16.01,15.35-8.4,2.85-16.94,5.4-25.57,7.48-5.84,1.41-11.93,1.79-17.92,2.62-19.52,2.7-39.16,2.6-58.79,2.13-8.03-.19-16.06-1.16-24.06-2.07-8.83-1.01-17.63-2.26-26.41-3.61-4.55-.7-9.06-1.75-13.54-2.81-10.75-2.52-21.51-5.02-32.21-7.76-4.73-1.21-9.34-2.97-13.97-4.54-10.73-3.65-21.55-7.08-32.15-11.08-9.79-3.69-19.43-7.81-28.96-12.13-7.67-3.47-15.08-7.52-22.59-11.33-6.39-3.24-12.84-6.37-19.13-9.8-6.46-3.53-12.77-7.35-19.13-11.06-7.58-4.42-15.18-8.82-22.72-13.31-2.96-1.76-5.8-3.73-8.67-5.64-1.76-1.17-3.39-1.03-5.09.18-8.43,6-16.81,12.07-25.35,17.91-9.89,6.76-19.69,13.7-29.99,19.8-6.45,3.82-13.91,5.91-20.61,9.35-9.64,4.95-20.18,6.8-30.47,9.44-11.17,2.86-21.27.5-29.71-7.9-4.74-4.72-9.48-9.45-12.48-15.46-1.46-2.93-2.67-6.31-2.76-9.53-.33-11.57-.12-23.15-.14-34.73,0-1.7.25-3.73-2.84-3.08-1.07,3.6-2.22,7.23-3.2,10.9-1.33,4.97-2.45,9.98-3.78,14.95-1.73,6.45-3.44,12.9-5.43,19.27-.74,2.36-2.04,4.63-3.5,6.65-2.52,3.49-6.54,4.24-10.17,1.86-1.9-1.24-3.98-2.78-4.98-4.71-3.28-6.28-6.1-12.78-6.68-20.02-.38-4.64-1.03-9.27-1.64-14.62-1.37,1.18-2.68,1.95-3.5,3.08-3.72,5.11-7.33,10.3-10.93,15.5-2.71,3.92-5.15,8.03-8.03,11.81-3.13,4.11-3.44,8.97-3.55,13.61-.18,7.46.81,14.93.87,22.41.15,17.62.16,35.25,0,52.87-.07,7.19-.63,14.44-1.33,21.52-1.18,11.98-.89,17.43-1.48,26.12-.35,5.14-1.29,10.25-1.93,15.37-.16,1.3-.26,2.08-.33,3.13-.62,8.87-.95,17.78-1.96,26.61-.57,4.97-2.34,9.8-3.38,14.74-.63,2.96-.69,6.05-1.37,8.99-.92,3.99-2.36,7.86-3.26,11.85-1.1,4.82-1.85,9.71-2.79,14.56-.54,2.78-1.05,5.57-1.79,8.3-2.26,8.33-4.08,16.84-7.08,24.91-4.78,12.86-9.38,25.96-17.02,37.43-6.68,10.02-12.69,20.88-23.23,27.69-5.75,3.72-11.73,6.67-19.2,5.36-4.76-.84-9.47-1.28-13.8-3.69-5.7-3.18-9.55-8.16-12.37-13.69-3.33-6.51-5.97-13.39-8.47-20.28-1.04-2.88-1-6.16-1.36-9.27-.79-6.79-1.76-13.57-2.21-20.39-.39-5.95-.92-11.92.31-17.92.85-4.17,1.13-8.5,1.26-12.77.25-7.85-.41-15.75,1.77-23.45,1.13-3.97,2.16-7.97,3.17-11.98,1.68-6.66,3.23-13.35,4.97-19.99,1.36-5.18,2.71-10.37,4.44-15.43,2.61-7.62,5.23-15.26,8.45-22.63,3.33-7.64,7.23-15.04,11.15-22.41,6.74-12.68,15.08-24.32,23.41-35.98,3.99-5.59,7.14-11.78,11.15-17.35,5.8-8.06,12.03-15.8,18.09-23.67,4.73-6.13,9.7-12.08,14.16-18.4,3.67-5.2,5.36-10.93,4.41-17.64-.93-6.62-.36-13.44-.85-20.14-.46-6.42-1.43-12.81-2.19-19.21-.59-5-1.08-10.01-1.85-14.98-.66-4.29-1.65-8.52-2.47-12.78-.49-2.54-.94-5.1-1.49-8.11-1.25.76-2.15,1.12-2.8,1.73-7.88,7.43-15.57,15.07-23.63,22.29-6.16,5.51-12.71,10.59-19.21,15.71-5.13,4.04-10.34,8-15.7,11.74-6.05,4.23-12.25,8.27-18.49,12.23-7.02,4.46-14.06,8.91-21.28,13.04-9.52,5.45-19.22,10.58-28.85,15.84-6.64,3.63-13.21,7.37-19.94,10.82-6.92,3.55-14.01,6.78-20.99,10.21-5.12,2.51-10.17,5.16-15.29,7.68-9.9,4.88-19.67,10.05-29.77,14.46-9.61,4.2-19.61,7.52-29.39,11.34-8.03,3.14-15.94,6.57-24,9.63-6.75,2.56-13.6,4.85-20.45,7.13-8.43,2.81-16.81,5.84-25.39,8.12-7.54,2.01-15.33,3.09-22.99,4.63-11.05,2.23-22.22,2.65-33.43,2.25-6.74-.24-12.35-3.23-17.16-8.01-3.76-3.73-6.83-7.75-7.28-13.15-.26-3.18-.49-6.54.26-9.58,1.1-4.5,2.84-8.89,4.75-13.13,1.54-3.41,4.62-5.31,8.43-5.28,3.8.03,6.62,1.91,8.19,5.48,1.01,2.31.46,4.4-.77,6.45-2.22,3.72-4.46,7.42-6.55,11.21-.85,1.55-1.49,3.27-1.91,4.99-.99,4.04.97,7.66,4.57,9.41,7.99,3.88,16.44,4.32,25.1,3,9.26-1.41,18.57-2.56,27.79-4.18,4.61-.81,9.09-2.41,13.63-3.64,4.08-1.1,8.22-2.01,12.24-3.31,5.45-1.76,10.8-3.82,16.2-5.74,5.94-2.11,11.96-3.99,17.8-6.34,8.42-3.39,16.75-7.04,25.06-10.71,11.04-4.87,22.12-9.68,33-14.88,9.54-4.55,18.86-9.55,28.23-14.43,9.14-4.77,18.26-9.57,27.31-14.5,5.02-2.74,9.85-5.83,14.82-8.67,8.99-5.13,18.01-10.22,27.05-15.29,13.69-7.68,26.59-16.56,39.19-25.88,8.28-6.12,16.41-12.44,24.53-18.76,5.94-4.62,11.82-9.31,17.62-14.1,8.67-7.16,17.09-14.62,25.9-21.59,6.6-5.23,10.13-2.91,13.74,3.6,2.07,3.73,3.61,7.86,4.71,11.98,1.52,5.69,2.43,11.54,3.53,17.34.96,5.06,1.92,10.11,2.7,15.2.97,6.32,1.76,12.66,2.62,19,.04.28-.07.61.03.86.44,1.16.93,2.3,1.4,3.44,1.09-.66,2.48-1.09,3.22-2.03,3.99-5.07,8.02-10.13,11.66-15.45,3.82-5.59,7.48-11.33,10.69-17.29,1.49-2.78,1.73-6.23,2.59-9.35.5-1.82,1.07-3.62,1.69-5.4,1.29-3.71,2.59-7.42,3.95-11.1,2.58-7.02,4.28-14.58,8.1-20.85,3.34-5.49,9.05-9.56,13.81-14.15,1.22-1.18,2.89-1.87,4.25-2.92,3.06-2.36,6.23-2.6,10.03-1.75,5.76,1.28,6.92,2.49,10.13-3.86,1.04-2.05,2.04-4.14,3.34-6.02,2.02-2.92,5.25-3.17,8.03-.92,5.3,4.3,5.43,9.87,4.29,15.96-.93,4.96-1.31,10.01-2.18,14.98-1.01,5.82-2.35,11.58-3.42,17.39-1.24,6.76-2.76,13.5-3.42,20.32-.98,10.11-1.26,20.29-1.94,30.43-.22,3.34-.57,6.85-.56,9.54,0,.76.2,3.84.42,5.1,1.03,5.84,5.43,14.92,13.6,20.28,4.33,2.84,9.28,2.28,13.96,1.56,5.97-.92,11.88-2.34,17.7-3.98,3.1-.87,5.89-2.77,8.91-3.99,10.25-4.14,19.84-9.54,29.24-15.28,9.57-5.84,18.95-12.01,28.39-18.06,4.85-3.11,9.69-6.24,14.49-9.42,2.85-1.89,2.82-3.18.23-5.26-11.32-9.12-22.6-18.29-33.9-27.44-7.63-6.18-15.44-12.15-22.83-18.61-7.69-6.72-15.02-13.86-22.42-20.91-4.26-4.06-8.53-8.15-12.48-12.51-9.7-10.7-19.45-21.38-28.75-32.41-6.99-8.29-13.59-16.94-19.87-25.78-4.25-5.99-7.73-12.53-11.36-18.94-3.53-6.24-6.92-12.57-10.15-18.98-1.72-3.41-3.04-7.04-4.41-10.62-2.4-6.26-4.42-12.68-7.14-18.8-2.41-5.43-3.68-11.08-4.66-16.83-1.78-10.4-5.58-20.51-4.55-31.33.66-6.92.69-13.94,1.93-20.75,1.2-6.6,3.7-12.96,5.44-19.47,2.33-8.67,6.18-16.65,10.54-24.44,5.19-9.29,12.46-16.72,20.55-23.45,5.87-4.89,11.83-9.66,18.82-12.88,7.55-3.48,12.91-6.51,21.3-7.21,1.39-.12,6.54-1,8-1,1,0,5.65-.07,7,0,3.55.19,7.48.51,11,1,6.3.88,6.74.88,13,2,8.38,1.5,17.33,6.13,24.88,9.98,9.93,5.08,19.43,10.9,28.35,17.58,4.87,3.64,9.54,7.58,13.99,11.72,3.17,2.95,5.8,6.47,8.69,9.72,1.1,1.23,1.78,1.31,3.12-.19,5.05-5.64,9.94-11.54,15.72-16.37,6.35-5.31,13.37-9.95,20.53-14.14,10.48-6.13,20.91-12.35,32.92-15.56,8-2.14,15.53-4.37,23.8-4.74,1.71-.08,6.09-.31,8.36-.33,4.6-.03,7.51.28,10.39.55,5.02.48,5.42.59,10.23,2.03,5.71,1.71,11.44,3.68,16.71,6.42,4.86,2.52,9.5,5.78,13.56,9.46,6.68,6.05,13.24,12.34,19.01,19.23,3.55,4.24,5.55,9.79,8.22,14.77,3.96,7.4,6.74,15.27,8.76,23.36,1.39,5.57,2.32,11.29,2.96,16.99.82,7.4,1.74,14.87,1.53,22.28-.22,7.54-1.27,15.14-2.86,22.52-1.68,7.77-4.06,15.45-6.79,22.93-3.37,9.22-7.33,18.23-11.2,27.26-4.84,11.3-11.02,21.9-18.06,31.92-6.78,9.66-13.87,19.13-21.33,28.27-9.14,11.21-18.5,22.28-28.33,32.88-7.6,8.21-16,15.69-24.19,23.33-5.96,5.56-12.09,10.94-18.25,16.27-5.76,4.98-11.68,9.77-17.47,14.72-2.36,2.02-4.44,4.37-6.86,6.31-5.11,4.09-10.35,8.01-15.55,12-4.14,3.18-8.29,6.34-13.03,9.96.6.36,1.25.75,1.91,1.14,10.94,6.6,21.72,13.5,32.88,19.72,12.89,7.18,26.03,13.93,39.22,20.53,9.16,4.58,18.53,8.75,27.92,12.84,7.73,3.36,15.59,6.42,23.45,9.45,6.39,2.47,12.85,4.78,19.33,7,4.35,1.49,8.79,2.73,13.2,4.05,3.42,1.02,6.83,2.11,10.3,2.93,8.7,2.07,17.44,4.01,26.16,6.01,5.69,1.3,11.33,2.89,17.08,3.81,7.96,1.27,15.99,2.16,24.01,2.96,9.2.92,18.42,1.63,27.64,2.3,3.19.23,6.41.07,9.61.07,7.78,0,15.56.11,23.33-.08,4.37-.11,8.75-.62,13.1-1.14,6.21-.74,12.44-1.44,18.59-2.55,5.37-.98,10.67-2.39,15.94-3.83,7.02-1.92,13.53-4.81,18.63-10.28,3.01-3.22,3.74-6.4,1.12-9.97-2.34-3.17-5.34-5.88-8.18-8.65-1.97-1.91-4.33-3.42-6.23-5.38-2.41-2.47-2.48-5.63-.69-8.31,1.16-1.74,3.31-3.78,5.14-3.91,3.94-.28,7.77.34,10.84,3.95,4.41,5.17,9.4,9.83,10.9,16.82.35,1.62.55,3.26.82,4.9v.58ZM313.22,674.43s-.06,0-.09,0c.16,2.68.02,5.42.55,8.02,1.02,4.97,2.44,9.86,3.68,14.79,2.75,10.92,8.32,19.99,17.75,26.35,3.3,2.23,7.15,3.17,11.06,1.62,9.28-3.69,16.86-9.51,21.34-18.62,5.31-10.79,10.35-21.71,15.41-32.62,1.14-2.45,2.01-5.03,2.78-7.62,2.06-6.93,3.99-13.89,5.98-20.84,1.11-3.88,2.31-7.74,3.33-11.64.94-3.65,1.68-7.35,2.52-11.02,1.55-6.73,4.04-13.3,3.29-20.41-.07-.66-.01-1.36.12-2.01,1.29-6.47,2.86-12.89,3.85-19.4,1.23-8.06,2.03-16.19,2.95-24.29.82-7.27,1.65-14.55,2.31-21.83.69-7.7,1.36-15.4,1.72-23.12.55-11.69.83-23.39,1.19-35.08.09-2.83.01-5.67.01-8.51,0-10.35.02-20.7-.04-31.05,0-.58-.51-1.53-.95-1.64-.5-.13-1.38.33-1.77.81-2.21,2.72-4.34,5.52-6.48,8.31-4.31,5.6-8.65,11.18-12.91,16.82-5.97,7.91-12.07,15.73-17.76,23.83-4.38,6.23-7.52,13.29-13.1,18.76-2.39,2.35-4.33,5.31-5.92,8.3-3.85,7.2-7.44,14.54-11.02,21.88-6.83,14-13.24,28.17-17.62,43.19-1.6,5.49-3.71,10.84-5.08,16.38-2.18,8.86-3.94,17.82-5.87,26.74-1.72,7.92-2.84,15.86-2.39,24.02.55,9.96.78,19.93,1.14,29.9ZM499.74,315.59c-.72.04-1.44-.15-1.83.13-2.48,1.74-5.05,3.41-7.28,5.44-7.4,6.74-10,16.14-13.2,25.08-1.92,5.37-3.15,11.03-4.26,16.64-1.03,5.19-1.95,10.47-2.09,15.73-.15,5.7.5,11.44,1.14,17.12.22,1.98,1.46,3.84,2.23,5.76.44.02.89.04,1.33.06,1.49-3.56,3.19-7.05,4.41-10.7,2.03-6.13,3.73-12.36,5.59-18.55,1.22-4.04,2.49-8.07,3.73-12.1,2.29-7.45,4.34-14.98,6.92-22.33,2.52-7.17,4.21-14.36,3.32-22.28Z"/><path class="cls-1" d="M291.34,293.41c-1.97,2.11-3.97,3.99-5.67,6.11-6.33,7.89-12.49,15.91-18.86,23.77-2.11,2.61-4.51,5.03-7.04,7.23-3.88,3.36-9.92,2.57-13.41-2.72-3.9-5.91-4.16-12.43-5.48-18.81-.44-2.15.2-4.53.4-7.65-3.77,4.22-7.06,8-10.46,11.68-2.49,2.69-5.06,5.31-7.73,7.83-4.6,4.34-9.13,8.8-14.03,12.79-4.04,3.29-2.99,7.33-2.86,11.46.2,6.35.23,12.7.15,19.05-.03,2.45-.9,4.9-.85,7.33.08,4.44-.98,8.59-2.17,12.8-.89,3.17-1.17,6.51-1.96,9.71-.84,3.37-1.8,6.73-3.02,9.98-1.54,4.09-3.16,8.19-5.17,12.06-5.54,10.68-11.96,20.71-23.09,26.51-8.55,4.45-16.65,2.24-20.33-5.48-2.33-4.9-2.11-10.27-1.53-15.47.49-4.37,1.46-8.76,2.83-12.94,1.62-4.97,3.66-9.84,5.93-14.55,2.81-5.83,5.78-11.62,9.17-17.14,3.16-5.15,6.65-10.17,10.56-14.78,5.26-6.22,11.07-11.98,16.62-17.95,1.23-1.33,2.82-2.57,3.44-4.16.79-2.05,1.2-4.45.97-6.62-.41-3.89-1.49-7.71-2.14-11.58-1.06-6.34-1.87-12.72-3.05-19.04-.28-1.5-1.61-2.81-2.85-4.87-1.94,4.37-3.68,7.86-5.07,11.49-1.84,4.78-3.57,9.62-5.04,14.53-.94,3.15-1.22,6.5-2,9.71-1.34,5.57-2.66,11.17-4.33,16.65-1.34,4.41-5.79,5.42-8.54,3.06-1.88-1.61-3.9-3.47-4.82-5.66-1.28-3.04-1.58-6.49-2.45-10.43-1.15,3.21-1.93,5.97-3.11,8.54-3.37,7.36-4.87,15.55-9.74,22.25-1,1.38-2.11,2.75-3.4,3.84-2.58,2.18-6.26.92-8.89-2.61-3.82-5.12-5.75-10.96-6.84-17.11-.61-3.45-.8-6.96-1.21-10.45-.34-2.92-.88-5.82-1.07-8.74-.2-2.98-.08-5.99-.12-8.99,0-.13-.17-.26-.4-.59-.65,2.3-1.28,4.44-1.87,6.59-1.38,5.05-2.57,10.16-4.17,15.14-.7,2.16-1.9,4.51-4.76,4.62-2.95.11-5.19-1.58-6.57-3.89-1.07-1.79-1.34-4.07-1.88-6.16-.37-1.45-.7-2.92-.86-4.41-.13-1.19-.08-2.42.11-3.61.21-1.37.65-2.69.43-4.37-3.07,2.45-6.19,4.82-9.18,7.36-4.62,3.93-9.14,7.98-13.73,11.96-1.42,1.23-1.96,1.97,0,3.59,4.36,3.58,8.54,7.72,9.46,13.52.71,4.49,1.08,9.41.01,13.74-2.87,11.7-9.75,21.14-18.86,28.9-4.74,4.04-9.58,7.98-14.61,11.64-3.22,2.34-6.56,4.69-10.89,4.81-6.67.19-7.67-3.08-8.51-8.32-1.14-7.11,1.74-13.49,4.69-19.62,3.38-7.03,6.91-14.07,11.23-20.53,4.34-6.5,9.72-12.31,14.67-18.4,1.37-1.68,2.85-3.27,4.93-5.64-3.71-.86-6.72-1.94-9.78-2.19-5.83-.47-11.72-.3-17.55-.7-8.11-.57-12.1-7.03-10.63-14.72,1.15-6.02,3.8-11.35,6.44-16.75.12-.25.06-.64.23-.81,3.28-3.33,6.39-6.86,9.95-9.86,2.74-2.3,8.07-1.61,10.63.73,1.84,1.68.89,6.64-1.67,8.41-3.34,2.32-6.67,4.68-10.13,6.81-3,1.85-4.69,4.55-5.84,7.73-.77,2.13-1.55,4.25-2.32,6.38-1.22,3.38.77,5.96,5.05,6.31,3.72.3,7.5.11,11.17.68,4.54.7,9.1,1.63,13.44,3.09,3.92,1.32,4.96,1.19,7.82-1.66,3.62-3.6,7.53-6.93,11.5-10.16,4.33-3.53,9.07-6.58,13.24-10.28,2.01-1.78,3.06-4.6,4.66-6.87,3.14-4.48,7.78-5.77,12.88-5.37,2.02.16,2.74-.72,2.8-2.17.1-2.79,1.14-4.67,4.04-4.87,2.01-.14,4.66,2.72,4.68,5.18.02,3.24-.28,6.49-.53,9.72-.35,4.47-.85,8.93-1.14,13.41-.27,4.21-.48,8.43-.46,12.64,0,1.84.58,3.7,1.04,5.5,1.38,5.34,2.64,10.73,4.37,15.96.78,2.36,2.57,2.55,4.03.56,1.88-2.55,3.54-5.34,4.84-8.22,2.35-5.19,4.33-10.54,6.54-15.79,2.43-5.77,5.16-11.42,7.36-17.28,2.21-5.85,3.51-12.07,5.97-17.8,2.77-6.45,8.29-10.53,14.5-13.49,1.27-.61,3.16-.62,4.52-.17,1.89.62,2.88.46,3.96-1.33.75-1.23,2.17-2.12,3.41-2.99,2.2-1.55,3.94-1.3,4.96,1.18,2.39,5.8,4.95,11.48,5.23,18.04.22,5.19.1,10.59,2.56,15.55.62,1.25.13,3.04.19,4.58.03.72.17,1.43.26,2.14.26.18.52.36.78.54,2.61-2.35,5.24-4.68,7.84-7.05,4.65-4.25,9.41-8.39,13.9-12.81,4.52-4.45,9.22-8.84,12.95-13.9,2.28-3.1,3-7.39,4.24-11.2,2.49-7.68,6.38-14.39,13.27-18.91,3.5-2.3,7.3-1.63,10.29,1.09,1.74,1.58,1.85,3.44,1.04,5.21-2.43,5.27-4.52,10.8-8.9,14.87-1.63,1.51-3.39,3.43-5.38,3.89-4.43,1.02-5.22,4.69-5.48,7.74-.67,7.99-.32,16.09,2.2,23.78,1.41,4.31,4.21,6.8,8.23,2,5.19-6.2,10.23-12.53,15.51-18.65,5.25-6.08,10.73-11.95,16.06-17.96.77-.87,1.62-1.96,1.79-3.05.57-3.66.66-7.39,1.3-11.03.8-4.52,1.99-8.98,2.98-13.47.95-4.32,1.57-8.73,2.85-12.94,1.08-3.55,1.05-7.75,4.58-10.18,1.29-.89,2.82-1.47,4.3-2.05,2.94-1.15,6.78,1.74,7.15,5.71.6,6.46-.29,12.71-2.74,18.84-2.79,6.96-5.53,14.01-7.39,21.25-1.39,5.4-1.51,11.16-1.89,16.77-.55,8.22-.78,16.46-1.24,24.69-.07,1.19-.64,2.36-.33,3.77.51-1.31,1.24-2.58,1.49-3.94.71-3.9.89-7.93,1.89-11.75,1.86-7.13,3.92-14.23,6.36-21.18,1.37-3.89,3.64-7.46,5.56-11.15,2.12-4.07,4.21-8.16,6.5-12.13,1.38-2.4,2.82-4.88,4.75-6.81,3.33-3.33,6.62-.57,7.84,3.83,1.71,6.14,3.17,12.52,3.41,18.84.19,4.89,1.52,9.35,2.47,13.98.47,2.3.61,4.7,1.29,6.93.78,2.56,1.74,5.13,3.08,7.43,1.68,2.86,5.43,2.83,7.62.23,1.84-2.18,3.9-4.21,5.48-6.58,5.35-8.04,9.33-16.76,12.86-25.75,2.89-7.36,6.47-14.45,9.79-21.65.26-.57.85-1,1.74-1.28-.48,1.2-.95,2.4-1.45,3.59-2.82,6.71-5.62,13.42-8.47,20.11-2.45,5.76-4.66,11.63-7.49,17.2-2.61,5.14-5.79,10-8.9,14.87-1.68,2.64-4.25,4.99-7.4,4.5-3.8-.59-6.61-3.43-7.9-7.09-1.63-4.63-3.08-9.36-4.09-14.16-1.29-6.15-2.04-12.42-3.06-18.63-.65-3.96-1.33-7.92-2.09-11.87-.1-.51-.76-1.31-1.12-1.28-.87.05-2.08.25-2.51.85-1.85,2.58-3.82,5.17-5.1,8.05-3.46,7.8-6.85,15.65-9.77,23.66-2.22,6.07-3.9,12.37-5.42,18.66-1.62,6.67-2.83,13.44-4.09,20.19-.86,4.63-1.76,9.29-2.12,13.97-.16,2.1.95,4.3,1.56,6.75-2.65,2.8-5.76,2.45-8.36-1.01-3.35-4.46-4.6-9.27-3.96-14.81.22-1.96-.89-4.03-1.03-6.08-.22-3.19-.15-6.41-.19-9.61,0-.19.15-.47.07-.55-3.16-3.22-.39-7.02-.74-10.51-.65-6.58.43-13.34.78-20.03,0-.16-.14-.33-.41-.88ZM198.18,343.76c-1.97,1.86-3.41,3.1-4.72,4.46-3.38,3.51-7,6.83-9.98,10.65-5.79,7.4-11.63,14.83-16.67,22.74-3.78,5.94-6.52,12.58-9.38,19.06-1.89,4.27-3.54,8.71-4.64,13.23-1.52,6.26-2.05,12.69-1.28,19.17.32,2.68,3.6,7.21,5.61,7.76,6.27,1.73,11.49-.34,15.65-4.85,3.44-3.74,6.84-7.68,9.38-12.04,3.38-5.78,6.18-11.95,8.69-18.17,1.61-3.97,2.29-8.32,3.3-12.52,1.54-6.43,3.02-12.8,2.72-19.56-.24-5.29.73-10.63,1.02-15.96.15-2.8-.01-5.63.02-8.44.02-1.61.15-3.21.27-5.53ZM84.84,367.4c.48-6.94-3.62-11.27-8.77-14.93-.4-.28-1.71.11-2.17.6-2.67,2.87-5.22,5.85-7.78,8.82-6.97,8.07-12.88,16.85-18.06,26.16-4.91,8.83-8.88,17.86-7.85,28.34.26,2.61,2.17,4.25,4.67,3.52,1.33-.39,2.61-1.07,3.83-1.76,6.43-3.63,12.19-8.08,16.83-13.9,4.08-5.12,8.68-9.9,12.25-15.35,4.2-6.41,7.45-13.41,7.04-21.49ZM169,348.37c.55-1.37,1.27-2.7,1.62-4.12.55-2.18.71-4.47,1.29-6.64,1.23-4.58,2.57-9.14,3.97-13.67,1.74-5.62,3.57-11.22,5.41-16.82.54-1.64,1.22-3.24,1.84-4.86-.25-.12-.5-.25-.76-.37-5.72,4.74-8.65,11.55-10.77,18.2-2.88,9.02-4.48,18.53-2.62,28.28ZM120.7,317.04c-1.46.53-2.24.63-2.8,1.04-6.99,5.13-7.53,12.83-8.07,20.51-.09,1.35-.11,2.73.1,4.06.11.7.7,1.73,1.25,1.86.6.14,1.65-.42,2.06-.99.75-1.04,1.36-2.27,1.71-3.51,1.26-4.51,2.4-9.05,3.54-13.58.72-2.86,1.36-5.74,2.21-9.37ZM251.71,291.33c6.49-3.08,15.27-14.8,14.33-19.45-7.77,4.28-11.47,11.24-14.33,19.45Z"/><path class="cls-1" d="M262.24,155.15c-3.59.82-6.79,1.78-10.07,2.23-2.47.34-3.81,1.32-3.84,3.82-.03,3.59.2,7.19-.05,10.76-.64,9.13-1.47,18.24-2.25,27.36-.56,6.54-1.07,13.1-1.8,19.62-.53,4.69-1.32,9.35-2.11,14.01-.55,3.25-.99,6.56-2.07,9.64-.5,1.43-2.28,3.03-3.71,3.31-1.18.22-3.09-1.1-4.01-2.27-3.51-4.42-4.67-9.78-5.43-15.23-1.15-8.25-3.65-16.28-3.59-24.74.02-3.35-1.19-6.69-1.63-10.06-.51-3.96-.82-7.95-1.16-11.93-.78-9.21-1.58-18.41-2.24-27.63-.23-3.28-.05-6.59-.1-9.89-.01-.89-.19-1.79-.29-2.68-.3-.06-.6-.13-.91-.19-.93,2.27-2.08,4.49-2.75,6.84-1.56,5.52-3.12,11.06-4.25,16.67-1.19,5.92-2.18,11.92-2.73,17.93-.84,9.13-1.18,18.31-1.84,27.47-.22,3.11-.82,6.2-1.11,9.31-.22,2.35-1.92,3.42-3.71,3.73-1.17.2-2.85-.62-3.81-1.51-3.68-3.42-4.93-8.16-5.71-12.82-1.14-6.81-1.86-13.72-2.38-20.61-.62-8.12-.91-16.26-1.2-24.4-.07-2.06.41-4.13.71-6.85-3.3,2.66-6.06,4.86-8.8,7.08-8.79,7.12-18.74,12.19-29.09,16.61-6.96,2.98-13.75,6.36-20.71,9.33-6.12,2.62-12.38,4.94-18.58,7.36-3.93,1.53-7.87,3.07-11.84,4.5-7.79,2.79-15.6,5.55-23.43,8.22-3.36,1.15-6.78,2.14-10.22,3.02-5.55,1.42-11.15,2.68-16.72,4.02-3.38.82-6.73,1.82-10.14,2.45-3.81.7-7.68,1.35-11.54,1.53-5.72.25-11.46.1-17.18.05-3.62-.03-9.5-3.26-9.79-7.27-.07-.97-.34-2.18.11-2.89,2.07-3.27,4.29-6.45,6.61-9.55,1.25-1.68,2.97-1.34,4.64-.48,1.99,1.03,3.18,2.49,3.28,4.86.09,2.11-1.1,3.13-2.75,3.9-1.35.63-2.89.99-4.05,1.87-.88.66-1.72,1.94-1.75,2.96-.02.63,1.47,1.76,2.39,1.88,4.33.57,8.72,1.34,13.05,1.14,5.75-.26,11.51-1.13,17.19-2.14,7.6-1.37,15.18-2.95,22.69-4.78,5.01-1.22,9.89-3,14.81-4.59,6.43-2.08,12.89-4.1,19.25-6.36,4.91-1.75,9.71-3.8,14.54-5.78,7.37-3.03,14.77-5.97,22.04-9.22,8.03-3.59,16.1-7.14,23.81-11.33,7.87-4.28,15.51-9.04,22.86-14.14,3.18-2.21,5.29-5.92,8.1-8.73,1.24-1.24,3.04-2.66,4.57-2.64,1,.01,2.51,2.34,2.84,3.84.59,2.7.48,5.56.64,8.35.4,7.27.67,14.55,1.21,21.81.64,8.61,1.51,17.21,2.33,25.8.05.52.47,1.01,1.39,1.51.49-4.75.99-9.5,1.46-14.26.8-8.04,1.41-16.11,2.42-24.13.62-4.94,1.55-9.89,2.88-14.68,2.2-7.94,4.19-16,8.65-23.11,1.28-2.05,3.63-2.18,5.2-.12,1.66,2.18,2.8,4.48,2.99,7.49.68,10.54,1.8,21.05,2.76,31.57.38,4.17.78,8.34,1.2,12.51.57,5.67,1.14,11.35,1.78,17.02.5,4.34.97,8.69,1.72,12.99.98,5.66,2.22,11.27,3.36,16.9.28,1.39.61,2.77,1.05,4.75.61-.85,1.2-1.33,1.32-1.91,1.03-4.98,2.27-9.94,2.87-14.97.86-7.29,1.17-14.64,1.84-21.95.89-9.66,1.91-19.3,2.87-28.95.39-3.88.6-7.79,1.29-11.61.19-1.05,1.71-2.45,2.81-2.64,5.16-.91,9.71-3.23,13.62-6.41,1.44-1.17,1.26-4.22,2.02-6.34.81-2.27,1.5-4.71,2.89-6.6,1.68-2.28,7.34-.83,7.84,2.15.62,3.68.25,7.52.27,11.3,0,.43-.19,1.12-.5,1.27-3.75,1.74-3.48,5.2-3.54,8.41-.11,5.89-.26,11.79.03,17.67.3,6.07,1.04,12.12,1.75,18.16.18,1.52.98,2.97,1.7,5.05.56-.36,1.64-.65,1.89-1.27,1.04-2.51,1.94-5.1,2.68-7.72,1.2-4.23,2.2-8.51,3.34-12.76,1.19-4.44,2.35-8.89,3.68-13.29.94-3.11,2.1-6.15,3.24-9.19,1.4-3.74,2.9-7.43,4.3-11.17.15-.39-.04-.99-.24-1.43-2.39-5.36-5.35-10.54-7.02-16.11-1.17-3.91-.65-8.35-.77-12.56-.04-1.31.34-2.63.46-3.95.66-7.44,3.26-13.82,9.78-18.09,3.36-2.2,9.13-.64,10.42,3.15,1.86,5.45,2.29,11.13,1.47,16.87-.09.66-.25,1.33-.21,1.99.46,8.84-2.39,16.98-5.2,25.14-.26.76-.28,1.91.12,2.53,2.85,4.42,7.08,7.36,11.41,10.14.94.6,2.06.93,2.96,1.58,2.23,1.6,4.2,2.29,6.34-.29.88-1.06,2.34-2.12,3.96-.52,1.23,1.22,2.06,1.89,1.57,4.27-1.05,5.11-.94,10.46-1.27,15.71-.12,1.96-.2,3.93-.14,5.89.08,2.47.26,4.95.53,7.41.52,4.71.67,9.54,1.85,14.09,1.12,4.28,3.26,8.31,5.19,12.34.66,1.38,2.08,1.84,3-.05,1.31-2.71,2.97-5.34,3.74-8.2,2.51-9.36,4.84-18.77,6.93-28.23,1.65-7.46,2.72-15.04,4.27-22.52.68-3.28,1.77-6.5,2.92-9.66,1.58-4.34,3.25-8.66,5.2-12.84.71-1.52,2.26-2.72,3.64-3.81.57-.45,1.67-.23,3.05-.36-5.35,8.72-8.41,17.45-10.33,26.59-2.71,12.86-5.26,25.75-8.02,38.6-1.4,6.5-2.83,13.02-4.74,19.38-1.68,5.6-4.15,6.9-9.78,6.76-2.82-.07-4.43-1.86-5.83-3.8-3.77-5.25-7.04-10.73-6.95-17.57.01-1.13-.96-2.25-1.06-3.42-.66-7.5-1.34-15.01-1.71-22.52-.15-3.21.45-6.45.74-10.04-10.07-1.2-16.75-7.66-23.68-14.28-1.53,4.29-3.12,8.18-4.31,12.19-2.41,8.09-4.66,16.23-6.85,24.39-.66,2.45-.67,5.07-1.37,7.5-1.15,3.94-2.28,7.95-4.05,11.62-2.06,4.28-5.95,4.34-9.28.86-3.66-3.84-5.49-8.56-6.2-13.53-1-6.96-1.4-14.01-1.82-21.04-.25-4.23-.05-8.49-.05-12.36ZM300.68,96.14c-2.54-.14-5.63,2.42-5.96,5.03-1.07,8.39-1.23,16.74,1.19,24.96.71,2.4,1.55,4.77,2.32,7.15.31-.01.61-.02.92-.04.21-.32.54-.61.61-.95.85-4.34,1.85-8.66,2.41-13.03.37-2.86-.24-5.85.18-8.7.73-5.01,1.01-9.85-1.67-14.42Z"/><path class="cls-1" d="M270.57,120.94c-3.05,0-4.27-1.26-4.27-4.35,0-2.35,2.84-5.93,4.8-6.05,2.05-.13,4.52,2.95,4.45,5.55-.09,3.2-1.8,4.86-4.98,4.86Z"/></g></svg>